<svg xmlns="http://www.w3.org/2000/svg" xmlns:xlink="http://www.w3.org/1999/xlink" version="1.1" x="0px" y="0px" viewBox="0 0 32 32" enable-background="new 0 0 32 32" xml:space="preserve"><g display="none"><rect x="-69.333" y="-18.667" display="inline" fill="#000000" width="473.333" height="236"></rect></g><g display="none"><g display="inline"><g><polygon fill="#000000" points="32,31.952 0,31.952 0,0.048    "></polygon></g><g><polygon fill="#000000" points="23.347,23.325 8.653,23.325 8.653,8.675    "></polygon></g></g><g display="inline"><g><polygon fill="#000000" points="0,0.048 32,0.048 32,31.952    "></polygon></g><g><polygon fill="#000000" points="8.653,8.675 23.347,8.675 23.347,23.325    "></polygon></g></g></g><g display="none"><g display="inline"><rect x="8.675" y="8.675" fill="#000000" stroke="#1A1718" stroke-miterlimit="10" width="14.65" height="14.65"></rect><rect x="0.5" y="0.326" fill="#000000" stroke="#1A1718" stroke-miterlimit="10" width="31" height="31.348"></rect><line fill="#000000" stroke="#1A1718" stroke-miterlimit="10" x1="0.413" y1="0.413" x2="31.587" y2="31.587"></line></g></g><g display="none"><rect x="0.5" y="0.326" display="inline" fill="#000000" stroke="#1A1718" stroke-miterlimit="10" width="31" height="31.348"></rect><rect x="8.675" y="8.675" display="inline" fill="#000000" stroke="#000000" stroke-miterlimit="10" width="14.65" height="14.65"></rect><line display="inline" fill="#000000" stroke="#1A1718" stroke-miterlimit="10" x1="0.413" y1="0.413" x2="31.587" y2="31.587"></line></g><g><g><polygon points="9.382,8.675 23.325,8.675 23.325,22.618 32,31.293 32,0 0.707,0   "></polygon><polygon points="22.618,23.325 8.675,23.325 8.675,9.382 0,0.707 0,32 31.293,32   "></polygon></g></g></svg>